<svg width="97" height="32" viewBox="0 0 97 32" fill="none" xmlns="http://www.w3.org/2000/svg">
<g clip-path="url(#clip0_1_32)">
<path d="M16 32C24.8366 32 32 24.8366 32 16C32 7.16344 24.8366 0 16 0C7.16344 0 0 7.16344 0 16C0 24.8366 7.16344 32 16 32Z" fill="#407BFF"/>
<path d="M16 10.6667V16.0001H10.6666V10.6667H16Z" fill="white"/>
<path d="M18.6666 16H13.3333V21.3333H18.6666V16Z" fill="white"/>
<path d="M16 21.3335H10.6666V26.6668H16V21.3335Z" fill="white"/>
<path d="M18.6666 26.6667H13.3333V32.0001H18.6666V26.6667Z" fill="white"/>
</g>
<path d="M55.4304 8.45455V23H52.7741L46.446 13.8452H46.3395V23H43.2642V8.45455H45.9631L52.2415 17.6023H52.3693V8.45455H55.4304ZM62.8434 23.2131C61.7402 23.2131 60.7861 22.9787 59.9812 22.5099C59.181 22.0365 58.5631 21.3783 58.1275 20.5355C57.6919 19.688 57.4741 18.7055 57.4741 17.5881C57.4741 16.4612 57.6919 15.4763 58.1275 14.6335C58.5631 13.786 59.181 13.1278 59.9812 12.6591C60.7861 12.1856 61.7402 11.9489 62.8434 11.9489C63.9466 11.9489 64.8983 12.1856 65.6985 12.6591C66.5034 13.1278 67.1237 13.786 67.5593 14.6335C67.9949 15.4763 68.2127 16.4612 68.2127 17.5881C68.2127 18.7055 67.9949 19.688 67.5593 20.5355C67.1237 21.3783 66.5034 22.0365 65.6985 22.5099C64.8983 22.9787 63.9466 23.2131 62.8434 23.2131ZM62.8576 20.8693C63.3595 20.8693 63.7785 20.7273 64.1147 20.4432C64.4509 20.1544 64.7042 19.7614 64.8746 19.2642C65.0498 18.767 65.1374 18.2012 65.1374 17.5668C65.1374 16.9323 65.0498 16.3665 64.8746 15.8693C64.7042 15.3722 64.4509 14.9792 64.1147 14.6903C63.7785 14.4015 63.3595 14.2571 62.8576 14.2571C62.351 14.2571 61.9248 14.4015 61.5792 14.6903C61.2383 14.9792 60.9802 15.3722 60.805 15.8693C60.6346 16.3665 60.5494 16.9323 60.5494 17.5668C60.5494 18.2012 60.6346 18.767 60.805 19.2642C60.9802 19.7614 61.2383 20.1544 61.5792 20.4432C61.9248 20.7273 62.351 20.8693 62.8576 20.8693ZM75.9826 12.0909V14.3636H69.413V12.0909H75.9826ZM70.9045 9.47727H73.93V19.6477C73.93 19.9271 73.9727 20.1449 74.0579 20.3011C74.1431 20.4527 74.2615 20.5592 74.413 20.6207C74.5692 20.6823 74.7492 20.7131 74.9528 20.7131C75.0948 20.7131 75.2369 20.7012 75.3789 20.6776C75.521 20.6491 75.6299 20.6278 75.7056 20.6136L76.1815 22.8651C76.0299 22.9124 75.8169 22.9669 75.5423 23.0284C75.2676 23.0947 74.9338 23.1349 74.5408 23.1491C73.8117 23.1776 73.1725 23.0805 72.6232 22.858C72.0787 22.6354 71.6549 22.2898 71.3519 21.821C71.0489 21.3523 70.8997 20.7604 70.9045 20.0455V9.47727ZM82.8079 23.2131C81.6857 23.2131 80.7198 22.9858 79.9102 22.5312C79.1052 22.072 78.485 21.4233 78.0494 20.5852C77.6138 19.7424 77.396 18.7457 77.396 17.5952C77.396 16.473 77.6138 15.4882 78.0494 14.6406C78.485 13.7931 79.0981 13.1326 79.8888 12.6591C80.6843 12.1856 81.6171 11.9489 82.6871 11.9489C83.4068 11.9489 84.0768 12.0649 84.6971 12.2969C85.3221 12.5241 85.8666 12.8674 86.3306 13.3267C86.7994 13.786 87.1639 14.3636 87.4244 15.0597C87.6848 15.7509 87.815 16.5606 87.815 17.4886V18.3196H78.6033V16.4446H84.967C84.967 16.009 84.8723 15.6231 84.6829 15.2869C84.4935 14.9508 84.2307 14.688 83.8945 14.4986C83.5631 14.3045 83.1772 14.2074 82.7369 14.2074C82.2776 14.2074 81.8704 14.3139 81.5153 14.527C81.1649 14.7353 80.8903 15.017 80.6914 15.3722C80.4925 15.7225 80.3907 16.1132 80.386 16.544V18.3267C80.386 18.8665 80.4854 19.3329 80.6843 19.7259C80.8879 20.1188 81.1744 20.4219 81.5437 20.6349C81.913 20.848 82.351 20.9545 82.8576 20.9545C83.1938 20.9545 83.5015 20.9072 83.7809 20.8125C84.0603 20.7178 84.2994 20.5758 84.4982 20.3864C84.6971 20.197 84.8486 19.965 84.9528 19.6903L87.7511 19.875C87.609 20.5473 87.3178 21.1345 86.8775 21.6364C86.4419 22.1335 85.8784 22.5218 85.1871 22.8011C84.5006 23.0758 83.7075 23.2131 82.8079 23.2131ZM89.7894 23V12.0909H92.7227V13.9943H92.8363C93.0352 13.3172 93.369 12.8059 93.8377 12.4602C94.3065 12.1098 94.8462 11.9347 95.457 11.9347C95.6085 11.9347 95.7719 11.9441 95.9471 11.9631C96.1223 11.982 96.2762 12.008 96.4087 12.0412V14.7259C96.2667 14.6832 96.0702 14.6454 95.8192 14.6122C95.5683 14.5791 95.3387 14.5625 95.1303 14.5625C94.6853 14.5625 94.2875 14.6596 93.9371 14.8537C93.5915 15.0431 93.3169 15.3082 93.1133 15.6491C92.9144 15.9901 92.815 16.383 92.815 16.8281V23H89.7894Z" fill="black"/>
<defs>
<clipPath id="clip0_1_32">
<rect width="32" height="32" fill="white"/>
</clipPath>
</defs>
</svg>
